<svg width="150" height="150" viewBox="0 0 150 150" fill="none" xmlns="http://www.w3.org/2000/svg">
<g clip-path="url(#clip0_8565_8350)">
<path fill-rule="evenodd" clip-rule="evenodd" d="M19.339 134.278C19.339 138.145 22.473 141.279 26.34 141.279C45.784 141.279 100.294 141.279 119.738 141.279C123.604 141.279 126.739 138.145 126.739 134.278H129.642C131.498 134.278 133.279 133.541 134.592 132.228C135.904 130.915 136.642 129.134 136.642 127.278C136.642 125.421 135.904 123.641 134.592 122.328C133.279 121.015 131.498 120.277 129.642 120.277C106.177 120.277 30.466 120.277 7.001 120.277C5.144 120.277 3.364 121.015 2.051 122.328C0.738001 123.641 0 125.421 0 127.278C0 129.134 0.738001 130.915 2.051 132.228C3.364 133.541 5.144 134.278 7.001 134.278H19.339Z" fill="#F9FAF9"/>
<path fill-rule="evenodd" clip-rule="evenodd" d="M23.7589 129.001C23.7589 132.868 26.8929 136.002 30.7599 136.002C50.2039 136.002 104.714 136.002 124.158 136.002C128.024 136.002 131.159 132.868 131.159 129.001H134.062C135.918 129.001 137.699 128.264 139.012 126.951C140.324 125.638 141.062 123.857 141.062 122.001C141.062 120.144 140.324 118.364 139.012 117.051C137.699 115.738 135.918 115 134.062 115C110.597 115 34.8859 115 11.4209 115C9.56392 115 7.78392 115.738 6.47092 117.051C5.15792 118.364 4.41992 120.144 4.41992 122.001C4.41992 123.857 5.15792 125.638 6.47092 126.951C7.78392 128.264 9.56392 129.001 11.4209 129.001H23.7589Z" stroke="#71AAFF" stroke-width="0.4" stroke-miterlimit="3" stroke-linecap="round"/>
<path d="M115.674 76.5892C115.087 75.1162 113.571 74.1202 111.877 74.2837L110.883 74.3782L110.781 74.3872L84.7258 76.8921L53.5513 79.8892L23.8228 82.7466C21.6658 82.9551 20.1508 84.9502 20.5408 87.0667L27.4183 124.384C27.7408 126.13 29.2723 127.397 31.0573 127.397H112.233C114.276 127.397 115.932 125.752 115.932 123.722V77.9392C115.932 77.4607 115.84 77.0061 115.672 76.5876L115.674 76.5892ZM36.1453 92.9481L102.235 87.8452C103.024 87.7852 103.719 88.3716 103.78 89.1591C103.84 89.9451 103.249 90.6321 102.457 90.6936L36.3688 95.7952C36.3298 95.7982 36.2923 95.7997 36.2548 95.7997C35.5123 95.7997 34.8808 95.2312 34.8238 94.4827C34.7608 93.6952 35.3548 93.0081 36.1453 92.9481ZM36.2173 103.261L102.307 101.446C103.099 101.419 103.761 102.046 103.783 102.835C103.806 103.624 103.179 104.281 102.385 104.303L36.2968 106.117C36.2818 106.118 36.2698 106.118 36.2548 106.118C35.4793 106.118 34.8403 105.503 34.8178 104.728C34.7968 103.94 35.4223 103.283 36.2158 103.261H36.2173ZM102.348 117.506H36.2563C35.4628 117.506 34.8178 116.866 34.8178 116.077C34.8178 115.288 35.4613 114.647 36.2563 114.647H102.346C103.14 114.647 103.785 115.288 103.785 116.077C103.785 116.866 103.141 117.506 102.346 117.506H102.348Z" fill="#90BCFF"/>
<path d="M112.233 127.847H31.0575C29.055 127.847 27.339 126.425 26.9775 124.468L20.1 87.1491C19.8915 86.0211 20.169 84.8496 20.862 83.9316C21.5595 83.0061 22.6245 82.4121 23.7825 82.2996L111.837 73.8351C113.664 73.6581 115.416 74.7201 116.094 76.4196C116.288 76.8996 116.385 77.4111 116.385 77.9376V123.721C116.385 125.995 114.524 127.844 112.236 127.844L112.233 127.847ZM112.233 74.7171C112.13 74.7171 112.026 74.7216 111.921 74.7321L110.822 74.8371L23.8665 83.1966C22.959 83.2836 22.125 83.7501 21.579 84.4746C21.03 85.2021 20.82 86.0946 20.9835 86.9871L27.861 124.304C28.1445 125.836 29.4885 126.947 31.056 126.947H112.233C114.026 126.947 115.482 125.501 115.482 123.724V77.9406C115.482 77.5296 115.406 77.1306 115.256 76.7571C114.764 75.5226 113.549 74.7186 112.233 74.7186V74.7171Z" fill="#A6CAFF"/>
<path d="M102.457 90.695L36.3689 95.7965C36.3299 95.7995 36.2924 95.801 36.2549 95.801C35.5124 95.801 34.8809 95.2325 34.8239 94.484C34.7609 93.6965 35.3549 93.0095 36.1454 92.9495L102.235 87.8465C103.024 87.7865 103.719 88.373 103.78 89.1605C103.84 89.9465 103.249 90.6335 102.457 90.695ZM103.783 102.835C103.806 103.624 103.179 104.281 102.385 104.303L36.2969 106.117C36.2819 106.118 36.2699 106.118 36.2549 106.118C35.4794 106.118 34.8404 105.503 34.8179 104.728C34.7969 103.94 35.4224 103.283 36.2159 103.261L102.306 101.446C103.098 101.419 103.759 102.046 103.782 102.835H103.783ZM103.785 116.078C103.785 116.867 103.141 117.508 102.346 117.508H36.2564C35.4629 117.508 34.8179 116.867 34.8179 116.078C34.8179 115.289 35.4614 114.649 36.2564 114.649H102.346C103.14 114.649 103.785 115.289 103.785 116.078Z" fill="#002C6D"/>
<path d="M26.4657 88.2907C26.2362 88.2907 26.0412 88.1167 26.0187 87.8842C25.9947 87.6367 26.1762 87.4162 26.4237 87.3937L77.2152 82.4857C77.4627 82.4617 77.6832 82.6432 77.7072 82.8907C77.7312 83.1382 77.5497 83.3587 77.3022 83.3812L26.5107 88.2892C26.4957 88.2892 26.4807 88.2907 26.4672 88.2907H26.4657ZM82.5192 82.6537C82.2957 82.6537 82.1022 82.4887 82.0737 82.2607C82.0422 82.0147 82.2162 81.7882 82.4622 81.7567L92.8647 80.4187C93.1107 80.3872 93.3372 80.5612 93.3687 80.8072C93.4002 81.0532 93.2262 81.2797 92.9802 81.3112L82.5777 82.6492C82.5582 82.6522 82.5387 82.6522 82.5192 82.6522V82.6537ZM98.4297 124.849H30.0147C29.7657 124.849 29.5647 124.648 29.5647 124.399C29.5647 124.15 29.7657 123.949 30.0147 123.949H98.4297C98.6787 123.949 98.8797 124.15 98.8797 124.399C98.8797 124.648 98.6787 124.849 98.4297 124.849Z" fill="#4992FF"/>
<path d="M51.1459 68.7862C54.5259 68.7862 57.2659 65.2275 57.2659 60.8377C57.2659 56.4478 54.5259 52.8892 51.1459 52.8892C47.7659 52.8892 45.0259 56.4478 45.0259 60.8377C45.0259 65.2275 47.7659 68.7862 51.1459 68.7862Z" fill="#FFAD4F"/>
<path d="M58.3673 52.8893C59.832 52.8893 61.0193 51.1861 61.0193 49.0853C61.0193 46.9844 59.832 45.2812 58.3673 45.2812C56.9027 45.2812 55.7153 46.9844 55.7153 49.0853C55.7153 51.1861 56.9027 52.8893 58.3673 52.8893Z" fill="#FFAD4F"/>
<path d="M93.6879 70.634C95.4682 70.634 96.9114 69.2002 96.9114 67.4315C96.9114 65.6628 95.4682 64.229 93.6879 64.229C91.9076 64.229 90.4644 65.6628 90.4644 67.4315C90.4644 69.2002 91.9076 70.634 93.6879 70.634Z" fill="#FFAD4F"/>
<path d="M86.5352 40.8537H82.3398C82.3425 39.4347 82.6812 38.0365 83.3283 36.7737C83.9753 35.5108 84.9123 34.4191 86.0625 33.5881C86.451 33.3096 86.7614 32.9359 86.9639 32.5029C87.1664 32.0699 87.2542 31.5922 87.219 31.1155C87.1837 30.6388 87.0265 30.1791 86.7624 29.7807C86.4984 29.3822 86.1364 29.0583 85.7111 28.84C85.2858 28.6218 84.8116 28.5164 84.3339 28.5342C83.8563 28.5519 83.3912 28.6922 82.9833 28.9414C82.5754 29.1906 82.2384 29.5405 82.0046 29.9575C81.7709 30.3744 81.6482 30.8445 81.6484 31.3225H77.4531C77.4534 30.1261 77.761 28.9499 78.3465 27.9065C78.9319 26.8632 79.7755 25.9877 80.7964 25.364C81.8174 24.7403 82.9814 24.3893 84.177 24.3447C85.3725 24.3001 86.5595 24.5633 87.6241 25.1091C88.6887 25.655 89.5952 26.4651 90.2568 27.4619C90.9184 28.4587 91.3128 29.6087 91.4023 30.8017C91.4918 31.9948 91.2733 33.1908 90.7679 34.2751C90.2624 35.3595 89.4869 36.2958 88.5156 36.9943C87.9037 37.4351 87.4051 38.0147 87.0608 38.6856C86.7165 39.3566 86.5364 40.0996 86.5352 40.8537Z" fill="#FFAD4F"/>
<path d="M86.5039 44.0957H82.293V48.3066H86.5039V44.0957Z" fill="#FFAD4F"/>
<path d="M127.883 87.0882C129.283 87.0923 130.654 86.6802 131.82 85.9044C132.986 85.1285 133.895 84.0237 134.433 82.7302C134.97 81.4367 135.111 80.0127 134.838 78.639C134.565 77.2652 133.89 76.0035 132.898 75.014L115.101 57.221C113.77 55.9173 111.978 55.1915 110.115 55.2013C108.252 55.211 106.467 55.9556 105.15 57.2732C103.832 58.5908 103.088 60.375 103.078 62.2383C103.068 64.1016 103.794 65.8936 105.098 67.2249L122.879 85.0218C123.536 85.6789 124.316 86.1998 125.175 86.5544C126.033 86.909 126.954 87.0904 127.883 87.0882ZM131.226 83.3616C130.339 84.248 129.137 84.746 127.883 84.746C126.629 84.746 125.426 84.248 124.539 83.3616L106.726 65.5687C106.287 65.1293 105.939 64.6077 105.701 64.0336C105.463 63.4596 105.341 62.8443 105.341 62.2229C105.341 61.6016 105.463 60.9863 105.701 60.4123C105.939 59.8382 106.287 59.3166 106.726 58.8772C107.166 58.4379 107.687 58.0894 108.261 57.8516C108.836 57.6138 109.451 57.4914 110.072 57.4914C110.693 57.4914 111.309 57.6138 111.883 57.8516C112.457 58.0894 112.978 58.4379 113.418 58.8772L131.211 76.6741C131.65 77.1131 131.999 77.6343 132.237 78.2081C132.474 78.7818 132.597 79.3968 132.597 80.0179C132.597 80.6389 132.474 81.2539 132.237 81.8277C131.999 82.4014 131.65 82.9227 131.211 83.3616H131.226Z" fill="#A6CAFF"/>
<path d="M132.058 84.1898C133.164 83.083 133.785 81.5825 133.785 80.0179C133.785 78.4534 133.164 76.9528 132.058 75.846L114.261 58.0687C113.154 56.9617 111.653 56.3398 110.087 56.3398C108.522 56.3398 107.021 56.9617 105.914 58.0687C104.807 59.1757 104.185 60.677 104.185 62.2425C104.185 63.808 104.807 65.3094 105.914 66.4164L123.71 84.2093C124.259 84.7571 124.911 85.1913 125.628 85.4868C126.345 85.7824 127.113 85.9336 127.888 85.9318C128.664 85.93 129.431 85.7752 130.147 85.4763C130.862 85.1773 131.512 84.7402 132.058 84.1898Z" fill="#4992FF"/>
<path d="M105.027 62.7911L110.656 57.1622L105.383 51.8848C109.304 46.5304 111.059 39.8924 110.296 33.2996C109.532 26.7067 106.307 20.6454 101.265 16.3289C96.2239 12.0125 89.7382 9.75928 83.1064 10.0204C76.4747 10.2815 70.1862 13.0377 65.4997 17.7372C60.8132 22.4367 58.0745 28.7328 57.8318 35.3653C57.589 41.9978 59.8602 48.4772 64.1907 53.5067C68.5211 58.5362 74.5913 61.7446 81.1863 62.4898C87.7812 63.235 94.4143 61.4619 99.7578 57.5254L105.027 62.7911ZM99.9492 54.3965L99.1289 55.0528C94.5243 58.7512 88.7149 60.6168 82.8179 60.2909C76.9209 59.9649 71.3526 57.4705 67.1836 53.2872C63.9097 50.0147 61.6525 45.865 60.6844 41.3384C59.7162 36.8119 60.0783 32.1019 61.7271 27.7766C63.3759 23.4512 66.241 19.6953 69.9766 16.9619C73.7123 14.2284 78.1591 12.6342 82.7805 12.3715C87.402 12.1087 92.0008 13.1887 96.0222 15.4812C100.044 17.7737 103.316 21.1807 105.444 25.2913C107.573 29.4019 108.466 34.0405 108.017 38.6476C107.568 43.2547 105.796 47.6335 102.914 51.2559L102.262 52.0762L107.34 57.1543L105.023 59.4707L99.9492 54.3965ZM84.1445 55.2872C88.5323 55.2881 92.7847 53.7675 96.177 50.9845C99.5693 48.2016 101.892 44.3284 102.748 40.0251C103.605 35.7217 102.943 31.2545 100.875 27.3845C98.8072 23.5146 95.4614 20.4814 91.4078 18.8018C87.3542 17.1223 82.8436 16.9003 78.6447 18.1737C74.4457 19.447 70.8182 22.137 68.3803 25.7852C65.9424 29.4334 64.8449 33.814 65.2749 38.1807C65.7049 42.5474 67.6357 46.6298 70.7383 49.7325C72.4979 51.4933 74.5872 52.8901 76.8868 53.8432C79.1864 54.7963 81.6513 55.287 84.1406 55.2872H84.1445ZM95.8945 24.5723C98.2185 26.8963 99.8012 29.8572 100.442 33.0806C101.084 36.304 100.755 39.6452 99.4968 42.6816C98.2391 45.718 96.1093 48.3133 93.3766 50.1392C90.6439 51.9652 87.4311 52.9398 84.1445 52.9398C80.8579 52.9398 77.6452 51.9652 74.9125 50.1392C72.1798 48.3133 70.0499 45.718 68.7922 42.6816C67.5345 39.6452 67.2055 36.304 67.8467 33.0806C68.4879 29.8572 70.0705 26.8963 72.3945 24.5723C73.9372 23.0294 75.7688 21.8055 77.7845 20.9705C79.8002 20.1355 81.9607 19.7057 84.1426 19.7057C86.3244 19.7057 88.4849 20.1355 90.5007 20.9705C92.5164 21.8055 94.3479 23.0294 95.8906 24.5723H95.8945ZM19.7969 58.1582C20.6467 58.1582 21.4775 57.9062 22.1841 57.4341C22.8907 56.9619 23.4415 56.2909 23.7667 55.5057C24.0919 54.7206 24.177 53.8566 24.0112 53.0231C23.8454 52.1896 23.4362 51.424 22.8352 50.823C22.2343 50.2221 21.4687 49.8129 20.6352 49.6471C19.8016 49.4813 18.9377 49.5664 18.1525 49.8916C17.3674 50.2168 16.6963 50.7675 16.2242 51.4742C15.752 52.1808 15.5 53.0115 15.5 53.8614C15.5 55.001 15.9527 56.0939 16.7585 56.8997C17.5643 57.7055 18.6573 58.1582 19.7969 58.1582ZM21.75 53.8379C21.7448 54.1557 21.6621 54.4674 21.5092 54.746C21.3562 55.0246 21.1376 55.2617 20.8722 55.4366C20.6069 55.6116 20.3028 55.7191 19.9865 55.7499C19.6702 55.7808 19.3511 55.7339 19.057 55.6135C18.7628 55.493 18.5026 55.3026 18.2987 55.0588C18.0948 54.8149 17.9536 54.525 17.8871 54.2142C17.8207 53.9034 17.8311 53.5811 17.9175 53.2752C18.0039 52.9693 18.1636 52.6892 18.3828 52.459C18.6528 52.1687 19.0048 51.9674 19.392 51.8819C19.7792 51.7964 20.1832 51.8307 20.5503 51.9804C20.9175 52.1301 21.2305 52.3879 21.4475 52.7197C21.6646 53.0515 21.7756 53.4416 21.7656 53.8379H21.75ZM30.4141 41.0137C31.086 41.0168 31.7437 40.8202 32.3037 40.4488C32.8636 40.0774 33.3006 39.5481 33.5592 38.9279C33.8178 38.3077 33.8862 37.6246 33.7559 36.9655C33.6256 36.3063 33.3023 35.7007 32.8272 35.2256C32.3521 34.7505 31.7465 34.4272 31.0873 34.2969C30.4281 34.1666 29.7451 34.235 29.1249 34.4936C28.5047 34.7522 27.9753 35.1892 27.604 35.7491C27.2326 36.3091 27.036 36.9668 27.0391 37.6387C27.0411 38.5332 27.3974 39.3904 28.0299 40.0229C28.6623 40.6554 29.5196 41.0117 30.4141 41.0137ZM29.3711 37.6309C29.3707 37.4596 29.4126 37.2908 29.4929 37.1395C29.5733 36.9881 29.6897 36.859 29.8318 36.7633C29.974 36.6677 30.1375 36.6085 30.3079 36.5911C30.4784 36.5736 30.6505 36.5984 30.809 36.6633C30.9676 36.7282 31.1078 36.8312 31.2171 36.9631C31.3264 37.095 31.4016 37.2518 31.4359 37.4197C31.4702 37.5875 31.4626 37.7613 31.4139 37.9255C31.3651 38.0898 31.2766 38.2395 31.1563 38.3614C31.0105 38.5045 30.8259 38.6016 30.6254 38.6407C30.4249 38.6798 30.2173 38.6592 30.0285 38.5814C29.8396 38.5036 29.6777 38.372 29.563 38.2031C29.4482 38.0341 29.3855 37.8352 29.3828 37.6309H29.3711Z" fill="#4992FF"/>
</g>
<defs>
<clipPath id="clip0_8565_8350">
<rect width="150" height="150" fill="white"/>
</clipPath>
</defs>
</svg>
